<mxfile modified="2022-09-25T08:45:43.068Z" host="app.diagrams.net" agent="5.0 (Macintosh; Intel Mac OS X 10_15_7) AppleWebKit/537.36 (KHTML, like Gecko) Chrome/105.0.0.0 Safari/537.36" etag="YG3kYi8pgLr7YBJXxuIH" version="20.3.6" type="github">
  <diagram id="Ht1M8jgEwFfnCIfOTk4-" name="Page-1">
    <mxGraphModel dx="1186" dy="1566" grid="1" gridSize="10" guides="1" tooltips="1" connect="1" arrows="1" fold="1" page="1" pageScale="1" pageWidth="1169" pageHeight="827" math="0" shadow="0">
      <root>
        <mxCell id="0" />
        <mxCell id="1" parent="0" />
        <mxCell id="UEzPUAAOIrF-is8g5C7q-175" value="AWS Cloud" style="points=[[0,0],[0.25,0],[0.5,0],[0.75,0],[1,0],[1,0.25],[1,0.5],[1,0.75],[1,1],[0.75,1],[0.5,1],[0.25,1],[0,1],[0,0.75],[0,0.5],[0,0.25]];outlineConnect=0;gradientColor=none;html=1;whiteSpace=wrap;fontSize=12;fontStyle=0;shape=mxgraph.aws4.group;grIcon=mxgraph.aws4.group_aws_cloud_alt;strokeColor=#232F3E;fillColor=none;verticalAlign=top;align=left;spacingLeft=30;fontColor=#232F3E;dashed=0;labelBackgroundColor=#ffffff;container=1;pointerEvents=0;collapsible=0;recursiveResize=0;" parent="1" vertex="1">
          <mxGeometry x="180" y="-760" width="970" height="579.5" as="geometry" />
        </mxCell>
        <mxCell id="UEzPUAAOIrF-is8g5C7q-177" value="Amazon S3&lt;br&gt;Bucket&lt;br&gt;" style="outlineConnect=0;fontColor=#232F3E;gradientColor=none;fillColor=#277116;strokeColor=none;dashed=0;verticalLabelPosition=bottom;verticalAlign=top;align=center;html=1;fontSize=12;fontStyle=0;aspect=fixed;pointerEvents=1;shape=mxgraph.aws4.bucket;labelBackgroundColor=#ffffff;" parent="UEzPUAAOIrF-is8g5C7q-175" vertex="1">
          <mxGeometry x="100" y="310" width="46" height="47.84" as="geometry" />
        </mxCell>
        <mxCell id="2PWywRzI_pJvUjOUBQNe-2" value="Cognito" style="sketch=0;points=[[0,0,0],[0.25,0,0],[0.5,0,0],[0.75,0,0],[1,0,0],[0,1,0],[0.25,1,0],[0.5,1,0],[0.75,1,0],[1,1,0],[0,0.25,0],[0,0.5,0],[0,0.75,0],[1,0.25,0],[1,0.5,0],[1,0.75,0]];outlineConnect=0;fontColor=#232F3E;gradientColor=#F54749;gradientDirection=north;fillColor=#C7131F;strokeColor=#ffffff;dashed=0;verticalLabelPosition=bottom;verticalAlign=top;align=center;html=1;fontSize=12;fontStyle=0;aspect=fixed;shape=mxgraph.aws4.resourceIcon;resIcon=mxgraph.aws4.cognito;" parent="UEzPUAAOIrF-is8g5C7q-175" vertex="1">
          <mxGeometry x="89" y="88" width="68" height="68" as="geometry" />
        </mxCell>
        <mxCell id="2PWywRzI_pJvUjOUBQNe-3" value="Okta" style="html=1;strokeColor=none;fillColor=#0079D6;labelPosition=center;verticalLabelPosition=middle;verticalAlign=top;align=center;fontSize=12;outlineConnect=0;spacingTop=-6;fontColor=#FFFFFF;sketch=0;shape=mxgraph.sitemap.cloud;" parent="UEzPUAAOIrF-is8g5C7q-175" vertex="1">
          <mxGeometry x="320" y="88" width="120" height="70" as="geometry" />
        </mxCell>
        <mxCell id="2PWywRzI_pJvUjOUBQNe-4" value="STS" style="outlineConnect=0;dashed=0;verticalLabelPosition=bottom;verticalAlign=top;align=center;html=1;shape=mxgraph.aws3.sts;fillColor=#759C3E;gradientColor=none;" parent="UEzPUAAOIrF-is8g5C7q-175" vertex="1">
          <mxGeometry x="92.25" y="200" width="61.5" height="34.5" as="geometry" />
        </mxCell>
        <mxCell id="2PWywRzI_pJvUjOUBQNe-5" value="" style="endArrow=classic;html=1;rounded=0;exitX=1;exitY=0.5;exitDx=0;exitDy=0;exitPerimeter=0;entryX=0;entryY=0.5;entryDx=0;entryDy=0;entryPerimeter=0;" parent="UEzPUAAOIrF-is8g5C7q-175" source="2PWywRzI_pJvUjOUBQNe-2" target="2PWywRzI_pJvUjOUBQNe-3" edge="1">
          <mxGeometry width="50" height="50" relative="1" as="geometry">
            <mxPoint x="250" y="310" as="sourcePoint" />
            <mxPoint x="300" y="260" as="targetPoint" />
          </mxGeometry>
        </mxCell>
        <mxCell id="2PWywRzI_pJvUjOUBQNe-6" value="Federated identity" style="edgeLabel;html=1;align=center;verticalAlign=middle;resizable=0;points=[];" parent="2PWywRzI_pJvUjOUBQNe-5" vertex="1" connectable="0">
          <mxGeometry x="-0.2516" relative="1" as="geometry">
            <mxPoint as="offset" />
          </mxGeometry>
        </mxCell>
        <mxCell id="2PWywRzI_pJvUjOUBQNe-12" value="IAM Role" style="outlineConnect=0;dashed=0;verticalLabelPosition=bottom;verticalAlign=top;align=center;html=1;shape=mxgraph.aws3.role;fillColor=#759C3E;gradientColor=none;" parent="UEzPUAAOIrF-is8g5C7q-175" vertex="1">
          <mxGeometry x="231" y="197.5" width="54.5" height="40" as="geometry" />
        </mxCell>
        <mxCell id="2PWywRzI_pJvUjOUBQNe-13" value="" style="endArrow=classic;html=1;rounded=0;exitX=0.125;exitY=0.5;exitDx=0;exitDy=0;exitPerimeter=0;entryX=1;entryY=0.5;entryDx=0;entryDy=0;entryPerimeter=0;" parent="UEzPUAAOIrF-is8g5C7q-175" source="2PWywRzI_pJvUjOUBQNe-12" target="2PWywRzI_pJvUjOUBQNe-4" edge="1">
          <mxGeometry width="50" height="50" relative="1" as="geometry">
            <mxPoint x="130" y="310" as="sourcePoint" />
            <mxPoint x="180" y="260" as="targetPoint" />
          </mxGeometry>
        </mxCell>
        <mxCell id="2PWywRzI_pJvUjOUBQNe-14" value="Permissions" style="edgeLabel;html=1;align=center;verticalAlign=middle;resizable=0;points=[];" parent="2PWywRzI_pJvUjOUBQNe-13" vertex="1" connectable="0">
          <mxGeometry x="0.1447" y="-1" relative="1" as="geometry">
            <mxPoint x="8" as="offset" />
          </mxGeometry>
        </mxCell>
        <mxCell id="2PWywRzI_pJvUjOUBQNe-7" value="App" style="html=1;verticalLabelPosition=bottom;align=center;labelBackgroundColor=#ffffff;verticalAlign=top;strokeWidth=2;strokeColor=#0080F0;shadow=0;dashed=0;shape=mxgraph.ios7.icons.smartphone;" parent="1" vertex="1">
          <mxGeometry x="57" y="-653" width="18" height="30" as="geometry" />
        </mxCell>
        <mxCell id="2PWywRzI_pJvUjOUBQNe-8" value="" style="endArrow=classic;html=1;rounded=0;entryX=0;entryY=0.5;entryDx=0;entryDy=0;entryPerimeter=0;" parent="1" target="2PWywRzI_pJvUjOUBQNe-2" edge="1">
          <mxGeometry width="50" height="50" relative="1" as="geometry">
            <mxPoint x="80" y="-638" as="sourcePoint" />
            <mxPoint x="180" y="-660" as="targetPoint" />
          </mxGeometry>
        </mxCell>
        <mxCell id="2PWywRzI_pJvUjOUBQNe-9" value="Login &amp;amp; get Identity token" style="edgeLabel;html=1;align=center;verticalAlign=middle;resizable=0;points=[];" parent="2PWywRzI_pJvUjOUBQNe-8" vertex="1" connectable="0">
          <mxGeometry x="-0.2426" y="1" relative="1" as="geometry">
            <mxPoint x="15" as="offset" />
          </mxGeometry>
        </mxCell>
        <mxCell id="2PWywRzI_pJvUjOUBQNe-10" value="" style="endArrow=classic;html=1;rounded=0;entryX=0;entryY=0.5;entryDx=0;entryDy=0;entryPerimeter=0;" parent="1" target="2PWywRzI_pJvUjOUBQNe-4" edge="1">
          <mxGeometry width="50" height="50" relative="1" as="geometry">
            <mxPoint x="70" y="-600" as="sourcePoint" />
            <mxPoint x="140" y="-590" as="targetPoint" />
            <Array as="points">
              <mxPoint x="70" y="-543" />
            </Array>
          </mxGeometry>
        </mxCell>
        <mxCell id="2PWywRzI_pJvUjOUBQNe-11" value="Get temporary token" style="edgeLabel;html=1;align=center;verticalAlign=middle;resizable=0;points=[];" parent="2PWywRzI_pJvUjOUBQNe-10" vertex="1" connectable="0">
          <mxGeometry x="0.1417" y="1" relative="1" as="geometry">
            <mxPoint as="offset" />
          </mxGeometry>
        </mxCell>
      </root>
    </mxGraphModel>
  </diagram>
</mxfile>
